HIERARCHY
ROOT Hips
{
  OFFSET -35.2597 29.1586 114.425
  CHANNELS 6 Xposition Yposition Zposition Zrotation Xrotation Yrotation
  JOINT LeftUpLeg
  {
    OFFSET 8.64259 1.95398 -2.38835
    CHANNELS 3 Zrotation Xrotation Yrotation
    JOINT LeftLeg
    {
      OFFSET 43.7702 0 0
      CHANNELS 3 Zrotation Xrotation Yrotation
      JOINT LeftFoot
      {
        OFFSET 40.6238 0 0
        CHANNELS 3 Zrotation Xrotation Yrotation
        JOINT LeftToeBase
        {
          OFFSET 12.7242 0 0
          CHANNELS 3 Zrotation Xrotation Yrotation
          End Site
          {
            OFFSET 0 0 0
          }
        }
      }
    }
  }
  JOINT RightUpLeg
  {
    OFFSET -8.2249 1.95398 -2.59336
    CHANNELS 3 Zrotation Xrotation Yrotation
    JOINT RightLeg
    {
      OFFSET 43.5653 0 0
      CHANNELS 3 Zrotation Xrotation Yrotation
      JOINT RightFoot
      {
        OFFSET 40.6238 0 0
        CHANNELS 3 Zrotation Xrotation Yrotation
        JOINT RightToeBase
        {
          OFFSET 12.7242 0 0
          CHANNELS 3 Zrotation Xrotation Yrotation
          End Site
          {
            OFFSET 0 0 0
          }
        }
      }
    }
  }
  JOINT Spine
  {
    OFFSET 0.165834 0.87714 6.61349
    CHANNELS 3 Zrotation Xrotation Yrotation
    JOINT Spine1
    {
      OFFSET 7.38963 1.71661e-005 0
      CHANNELS 3 Zrotation Xrotation Yrotation
      JOINT Spine2
      {
        OFFSET 11.9445 1.14441e-005 0
        CHANNELS 3 Zrotation Xrotation Yrotation
        JOINT Spine3
        {
          OFFSET 14.7254 4.19617e-005 0
          CHANNELS 3 Zrotation Xrotation Yrotation
          JOINT Spine4
          {
            OFFSET 10.9679 0 0
            CHANNELS 3 Zrotation Xrotation Yrotation
            JOINT RightShoulder
            {
              OFFSET 2.46616 -1.6653 3.69651
              CHANNELS 3 Zrotation Xrotation Yrotation
              JOINT RightArm
              {
                OFFSET 13.0012 0 0
                CHANNELS 3 Zrotation Xrotation Yrotation
                JOINT RightForeArm
                {
                  OFFSET 28.7848 1.62311e-005 0
                  CHANNELS 3 Zrotation Xrotation Yrotation
                  JOINT RightHand
                  {
                    OFFSET 26.5688 1.62095e-005 0
                    CHANNELS 3 Zrotation Xrotation Yrotation
                    End Site
                    {
                      OFFSET 0 0 0
                    }
                  }
                }
              }
            }
            JOINT LeftShoulder
            {
              OFFSET 2.38034 -1.29275 -3.7523
              CHANNELS 3 Zrotation Xrotation Yrotation
              JOINT LeftArm
              {
                OFFSET 16.3182 6.07031e-005 0
                CHANNELS 3 Zrotation Xrotation Yrotation
                JOINT LeftForeArm
                {
                  OFFSET 27.0901 0 0
                  CHANNELS 3 Zrotation Xrotation Yrotation
                  JOINT LeftHand
                  {
                    OFFSET 24.5451 1.51738e-005 0
                    CHANNELS 3 Zrotation Xrotation Yrotation
                    End Site
                    {
                      OFFSET 0 0 0
                    }
                  }
                }
              }
            }
            JOINT Neck
            {
              OFFSET 5.0226 -0.0266342 0
              CHANNELS 3 Zrotation Xrotation Yrotation
              JOINT Head
              {
                OFFSET 6.69364 2.86102e-005 0
                CHANNELS 3 Zrotation Xrotation Yrotation
                End Site
                {
                  OFFSET 0 0 0
                }
              }
            }
          }
        }
      }
    }
  }
}
MOTION
Frames:	15
Frame Time:	0.0416667
36.4268 95.5851 -310.123 -147.398 -84.0421 -144.217 -171.519 -18.1 90.5221 -17.5061 12.1941 -0.434139 86.3228 16.9909 -0.902015 25.463 -6.32572 8.52908 178.273 20.1238 98.049 -6.42408 -18.0067 3.05827 50.0011 7.19847 -2.41595 59.4805 -12.5035 -8.48303 -0.635865 7.98229 -90.2336 10.9077 -1.37395 -0.334959 -0.76251 -1.38736 -0.27416 -23.3021 -1.20975 -0.732452 -3.28944 -1.20976 -0.73246 86.2241 -39.7694 -109.992 37.0756 12.1199 7.16164 -5.429 -43.8478 -5.52792 -18.1445 2.14884 -19.14 -87.871 -54.6863 82.72 -25.8449 -9.49693 -46.2162 3.44252 37.8105 -4.51225 12.5423 -2.15103 -20.0159 5.57216 0.904014 -10.2611 3.25893 2.84638 1.13559 
36.2058 96.0352 -299.584 -159.878 -83.9394 -155.227 -169.621 -22.6446 93.45 -18.5584 13.9764 0.414381 75.2009 11.5847 0.234551 37.6672 0.18548 10.2903 179.129 22.602 100.365 -25.8301 -9.52505 1.31142 59.5094 2.12194 -1.36108 23.1323 -0.85091 10.3769 -0.750733 7.87648 -90.6022 11.1114 -1.77382 -1.02688 -0.558642 -1.81729 -0.947802 -23.097 -1.38323 -1.51252 -3.08431 -1.38322 -1.51253 87.0694 -38.9241 -108.852 37.6679 12.2116 8.71725 -5.39377 -43.3548 -5.50601 -14.812 1.20763 -15.0703 -87.9221 -57.1265 83.0403 -27.2376 -9.32035 -38.3787 3.72432 42.7469 -4.79177 7.98147 -1.18297 -16.1984 6.34005 1.38115 -7.14037 1.65579 2.74269 0.434979 
35.9617 96.7488 -289.616 -169.717 -82.0147 -163.921 -167.751 -9.75773 99.2473 -46.5689 21.8114 1.20424 58.1329 -1.1738 -0.87217 28.6993 -2.31617 4.72836 178.043 17.6968 101.724 -34.2019 -8.35308 2.09148 66.4571 -2.66156 -1.7448 18.7345 1.01095 8.4433 -0.605378 7.92198 -90.8303 11.018 -1.58987 -1.5011 -0.652789 -1.65439 -1.42968 -23.185 -1.06531 -1.90942 -3.17234 -1.06531 -1.90942 87.4501 -38.1129 -108.482 37.8931 11.893 7.12923 -5.3708 -43.0298 -5.49187 -14.6597 1.47938 -17.1542 -87.9869 -56.7151 82.8849 -29.065 -9.41355 -26.7021 4.37386 51.3987 -5.45447 1.43909 -0.114258 -4.26772 5.59541 0.931673 -5.88366 0.195068 2.02481 0.919347 
35.5871 98.1473 -281.933 -177.361 -81.7695 -171.575 -169.5 6.90626 98.9161 -65.3716 18.7446 2.18573 59.9498 0.0181993 2.17469 12.3585 -10.8931 2.98171 178.062 10.0438 101.414 -30.8735 -9.14734 2.16723 69.2223 -5.23575 -2.83787 21.6549 0.50075 7.03444 -0.282205 7.98755 -90.8141 10.8879 -0.938138 -1.53051 -0.783557 -1.00458 -1.48775 -23.3125 -0.434867 -1.74164 -3.29985 -0.434861 -1.74164 87.4045 -37.7966 -108.678 39.602 10.0691 0.293287 -5.27923 -41.7029 -5.43731 -22.032 1.96914 -15.7804 -87.9146 -58.3582 83.2416 -25.3454 -12.4358 -17.9057 4.49808 52.7231 -5.58139 -0.727401 -0.0639297 -3.09669 5.17318 -0.209883 -4.98811 0.851135 0.718418 0.520749 
35.6148 99.7738 -274.597 -165.685 -81.5418 -163.616 -171.662 17.0385 92.8159 -59.6438 6.58259 0.999407 68.1923 6.07172 3.36045 11.0801 -13.8166 5.77624 177.13 1.91815 97.6183 -25.5477 -12.6391 0.692275 70.9755 -6.49351 -3.03693 23.1352 -0.110342 7.25598 0.383166 7.96793 -90.2826 10.9395 0.632135 -0.621999 -0.731452 0.604138 -0.649224 -23.2672 0.789832 -0.403258 -3.2546 0.789835 -0.403264 87.1292 -37.253 -109.367 40.4161 8.22564 -7.12819 -5.40779 -43.5516 -5.51491 -27.4142 2.06233 -13.8477 -87.2591 -58.2834 84.1304 -20.4187 -15.1135 -10.2142 4.05892 47.1934 -5.14877 0.91734 -0.253881 -10.0542 2.46024 -1.37602 -3.28168 2.06641 -0.84644 -0.812743 
36.1992 99.9618 -267.007 -146.528 -81.9078 -147.773 -173.673 21.3206 88.0971 -36.6068 0.348926 -1.25135 66.0646 4.73595 -0.860973 13.0276 -11.0593 3.7894 174.927 -2.47383 93.4573 -23.8345 -18.4919 -0.319695 74.1807 -8.67975 -4.40165 22.6451 0.310923 6.5554 0.980383 7.89288 -89.8923 11.0874 2.00158 0.0218505 -0.581962 2.0006 -0.0663047 -23.1287 1.90243 0.62261 -3.11605 1.90243 0.622618 86.7335 -35.2245 -110.873 38.9333 7.41656 -14.2113 -5.70679 -47.4644 -5.70634 -26.7817 2.89043 -17.5526 -86.1061 -58.3616 85.7247 -15.6577 -16.9871 -4.76315 3.67131 41.8865 -4.74871 0.539217 -0.380993 -15.8051 2.09419 -1.45611 1.67841 1.77879 -1.77242 -3.19727 
36.8318 98.5465 -258.303 -146.346 -80.6219 -148.256 -176.603 18.8505 86.5616 -11.1878 2.87479 -1.64489 63.1936 3.583 0.211051 14.8543 -11.2924 5.72996 172.904 -9.91389 90.0518 -23.2174 -20.3535 -0.62951 77.8689 -11.4722 -5.08321 26.5241 -0.894269 5.88619 1.22947 8.08472 -89.9169 10.7063 2.48672 -0.0628628 -0.962243 2.48155 -0.172327 -23.5155 2.39058 0.687842 -3.50284 2.39058 0.68784 86.6374 -34.1081 -111.512 35.689 7.83103 -20.9946 -6.22486 -53.1252 -6.07557 -28.9102 4.15963 -21.6646 -86.5864 -61.1466 85.431 -11.1243 -18.2963 0.319297 3.38728 36.7458 -4.45668 -0.35345 -0.273555 -14.1623 1.66863 -1.19953 5.47466 2.91447 -2.13814 -3.32657 
37.1233 96.9695 -248.201 -137.149 -79.4724 -140.564 -177.605 18.1039 85.0411 -7.27006 -1.41663 -2.19756 58.7837 0.852841 -1.78671 13.2654 -11.0385 3.96673 170.236 -15.5576 86.1253 -24.368 -22.6749 -1.57699 79.2231 -13.2499 -5.70301 31.0684 -2.32663 5.04291 1.37283 8.08488 -89.7007 10.7035 2.87186 0.331563 -0.964318 2.88367 0.204732 -23.5216 2.63935 1.17992 -3.50898 2.63935 1.17992 85.8594 -34.8379 -112.619 35.0542 7.54554 -24.4611 -6.08118 -51.6899 -5.9689 -31.7373 4.23347 -20.3099 -86.4877 -63.1643 85.8148 -9.48819 -18.5081 4.28959 3.14902 31.4618 -4.21545 -0.712011 -0.133939 -8.44135 1.78115 -0.641738 5.73757 3.80069 -1.62852 -2.60614 
37.1465 96.9947 -236.588 -126.492 -77.9137 -131.314 -175.31 20.3962 83.8719 -20.7888 2.03042 -3.84126 56.9824 -2.95353 -1.34781 7.40238 -12.5985 1.13656 169.125 -17.4795 82.7085 -29.4292 -24.3904 -4.58455 70.1764 -6.61381 -5.03366 41.1163 -6.40916 8.24134 1.58546 7.85929 -89.413 11.1457 3.42842 0.834248 -0.520882 3.46181 0.682371 -23.0836 3.0191 1.82684 -3.07092 3.01909 1.82683 85.7115 -35.5801 -112.566 38.9977 5.92846 -20.7466 -5.81003 -48.7021 -5.77721 -31.3312 3.88511 -19.2698 -86.2466 -64.2219 86.2552 -9.01759 -18.572 5.05391 3.08495 29.8822 -4.14969 -2.16454 -0.092508 -5.46799 2.90013 -0.659796 4.51828 0.43667 -1.42764 -2.83577 
37.009 97.9599 -225.426 -137.587 -77.5066 -144.08 -174.107 14.1745 81.2577 -27.9628 3.90455 -4.60394 66.2198 3.58289 -0.552189 8.63348 -14.6821 4.76574 170.127 -12.0765 80.4187 -46.9818 -26.1539 -6.78727 54.925 3.90776 0.305488 30.6322 -2.84112 8.16668 1.29752 7.93889 -89.1661 10.978 2.9692 1.37612 -0.690181 3.02688 1.24403 -23.239 2.4184 2.2051 -3.22638 2.41839 2.20509 85.7838 -35.3512 -112.535 43.056 5.43921 -13.515 -6.1576 -52.4573 -6.02297 -24.8851 3.2876 -20.3857 -86.7446 -63.7812 85.5569 -10.802 -18.477 -0.607047 3.0897 30.0018 -4.15501 -2.43418 -0.0878374 -5.66218 2.1144 -0.696315 3.8772 0.480967 -1.34376 -3.51628 
36.7259 98.7543 -217.073 -134.668 -77.1849 -140.898 -174.641 8.60159 81.017 -28.3798 2.87074 -4.3681 71.7921 7.1134 -0.0527592 11.6142 -13.7423 6.15034 175.432 1.04445 82.8299 -61.7846 -23.8698 -7.39324 57.5842 1.6261 0.742902 22.6732 1.6542 2.68299 1.07757 7.95133 -89.2432 10.9585 2.4956 1.26726 -0.710596 2.54896 1.15613 -23.2544 1.99941 1.9588 -3.24174 1.9994 1.95878 86.0827 -35.1272 -112.091 44.6361 6.02816 -8.39193 -6.71046 -57.3888 -6.45376 -19.5077 2.14528 -18.0031 -87.2466 -63.804 84.9102 -13.8595 -18.0572 -13.3549 3.25026 33.8084 -4.31856 0.766091 -0.16076 -6.27431 1.49666 0.0634997 4.01892 0.111582 -0.577473 -2.90853 
36.2068 99.9446 -209.596 -139.256 -77.9985 -142.932 -175.871 1.4739 82.3625 -24.3342 2.93953 -2.02588 74.5 8.63361 -0.38823 13.9567 -12.6889 6.85722 177.542 10.4153 87.52 -56.7668 -11.5071 -5.04953 69.1148 -6.04904 -0.843721 23.5373 1.61207 1.85308 0.571178 8.02692 -89.5887 10.8159 1.32726 0.694605 -0.854579 1.35655 0.635505 -23.3919 1.05715 1.0614 -3.37926 1.05715 1.0614 86.7122 -35.7483 -110.702 45.5268 6.79268 -4.06853 -5.94285 -50.2003 -5.86749 -21.1623 1.79952 -15.1925 -87.4312 -61.1719 84.3078 -17.7124 -16.3947 -26.087 3.27591 34.3746 -4.34465 0.812194 -0.253564 -11.278 0.77877 1.40311 2.56656 0.271698 0.989419 -1.41596 
35.3505 100.084 -201.966 -148.746 -79.9633 -149.995 -175.351 -4.59061 84.9294 -21.521 5.71127 -0.621814 78.0228 10.6151 -0.849929 15.8683 -12.4951 8.38739 177.763 15.1849 91.1415 -34.8676 -5.48548 -2.18684 66.8463 -5.12083 -1.31854 24.1751 0.551387 4.17008 -0.0298067 8.05865 -89.9363 10.7566 -0.0299303 0.129384 -0.91437 -0.0242109 0.130569 -23.4495 -0.067437 0.114398 -3.43684 -0.0674371 0.114406 86.5575 -36.2312 -110.782 43.701 8.49233 -0.165016 -5.64728 -46.7276 -5.66747 -21.2786 2.14799 -16.9842 -87.2725 -57.8166 84.044 -21.4754 -13.7561 -36.6097 3.2621 34.0703 -4.33075 5.44441 -0.827884 -15.1312 0.562406 2.36657 0.687316 0.653721 2.22777 -0.298492 
34.2264 98.8511 -193.162 -153.249 -80.8512 -154.007 -174.132 -11.6824 86.806 -18.6625 6.66104 -0.373442 82.643 13.8978 -1.68605 17.2499 -11.5755 8.40807 177.521 15.1639 92.2275 -9.84523 -8.69507 -0.193123 62.6915 -3.05318 -2.61739 23.6333 0.486857 4.96701 -0.242884 8.12044 -90.011 10.6329 -0.488768 0.0225362 -1.03798 -0.487301 0.0440207 -23.5738 -0.472945 -0.125402 -3.56114 -0.472945 -0.125405 86.7396 -37.5111 -109.955 40.9646 10.3483 3.92304 -5.60559 -46.1973 -5.63962 -21.1837 2.82747 -20.7189 -87.6681 -56.2171 83.2524 -23.0722 -12.0132 -45.4961 3.42653 37.527 -4.4934 10.7111 -1.64941 -18.0457 1.10696 2.27301 -2.00737 0.683899 2.54489 0.474521 
32.9719 96.8174 -183.151 -165.922 -81.611 -165.874 -171.765 -19.1512 89.9822 -16.932 9.95602 -0.102062 85.4243 17.1291 -1.5117 22.7373 -10.2546 12.2123 178.291 18.6673 93.3461 -11.1771 -10.4274 -0.307185 63.9277 -2.23935 -1.54727 22.9917 1.23699 3.53153 -0.45538 8.13847 -90.0901 10.5973 -0.948366 -0.0942061 -1.07325 -0.951592 -0.052371 -23.6109 -0.876207 -0.374891 -3.59824 -0.876205 -0.374891 86.6442 -38.3956 -109.785 40.5024 11.112 7.02483 -5.55458 -45.5364 -5.60617 -18.5173 1.95577 -17.6159 -87.8972 -57.7261 83.1688 -23.0542 -11.6983 -49.686 3.63827 41.4034 -4.7104 10.0176 -1.84174 -20.465 2.33511 1.88929 -2.93518 0.0631158 2.31927 -0.766328 
